<svg width="64" height="64" viewBox="0 0 64 64" fill="none" xmlns="http://www.w3.org/2000/svg">
<g clip-path="url(#clip0_8_153)">
<path d="M7.06012 8.36392C6.93937 4.01255 9.641 0 13.2928 0H50.7119C54.3636 0 57.0652 4.01255 56.9445 8.36392C56.8285 12.5438 56.9791 17.9584 58.065 22.3733C59.1544 26.8019 60.9914 29.6011 64 29.9608V34.0392C60.9914 34.3989 59.1544 37.1981 58.065 41.6267C56.9791 46.0416 56.8285 51.4562 56.9445 55.6362C57.0652 59.9875 54.3636 64 50.7119 64H13.2928C9.641 64 6.93937 59.9875 7.06025 55.6362C7.17612 51.4562 7.0255 46.0416 5.9395 41.6267C4.85025 37.1981 3.00875 34.3989 0 34.0392V29.9608C3.00863 29.6011 4.85025 26.8019 5.9395 22.3733C7.0255 17.9584 7.17612 12.5438 7.06012 8.36392Z" fill="url(#paint0_linear_8_153)"/>
<g filter="url(#filter0_d_8_153)">
<path d="M33.3879 49.0128C39.3 49.0128 42.8626 45.3802 42.8626 39.3885C42.8626 34.8594 40.3206 31.5805 36.5461 31.0615V30.8728C39.3192 30.3067 41.4954 27.075 41.4954 23.4659C41.4954 18.3234 38.2601 14.9736 33.3301 14.9736H22.2376V49.0128H33.3879ZM26.5514 19.2905H32.2902C35.41 19.2905 37.1816 21.0361 37.1816 24.197C37.1816 27.5703 35.1211 29.4574 31.3851 29.4574H26.5514V19.2905ZM26.5514 44.6961V33.4913H32.2516C36.3342 33.4913 38.4526 35.3783 38.4526 39.0583C38.4526 42.7382 36.3921 44.6961 32.502 44.6961H26.5514Z" fill="url(#paint1_linear_8_153)"/>
<path d="M33.3879 49.0128C39.3 49.0128 42.8626 45.3802 42.8626 39.3885C42.8626 34.8594 40.3206 31.5805 36.5461 31.0615V30.8728C39.3192 30.3067 41.4954 27.075 41.4954 23.4659C41.4954 18.3234 38.2601 14.9736 33.3301 14.9736H22.2376V49.0128H33.3879ZM26.5514 19.2905H32.2902C35.41 19.2905 37.1816 21.0361 37.1816 24.197C37.1816 27.5703 35.1211 29.4574 31.3851 29.4574H26.5514V19.2905ZM26.5514 44.6961V33.4913H32.2516C36.3342 33.4913 38.4526 35.3783 38.4526 39.0583C38.4526 42.7382 36.3921 44.6961 32.502 44.6961H26.5514Z" stroke="white"/>
</g>
</g>
<defs>
<filter id="filter0_d_8_153" x="5.73761" y="2.47363" width="53.625" height="67.0392" filterUnits="userSpaceOnUse" color-interpolation-filters="sRGB">
<feFlood flood-opacity="0" result="BackgroundImageFix"/>
<feColorMatrix in="SourceAlpha" type="matrix" values="0 0 0 0 0 0 0 0 0 0 0 0 0 0 0 0 0 0 127 0" result="hardAlpha"/>
<feOffset dy="4"/>
<feGaussianBlur stdDeviation="8"/>
<feColorMatrix type="matrix" values="0 0 0 0 0 0 0 0 0 0 0 0 0 0 0 0 0 0 0.15 0"/>
<feBlend mode="normal" in2="BackgroundImageFix" result="effect1_dropShadow_8_153"/>
<feBlend mode="normal" in="SourceGraphic" in2="effect1_dropShadow_8_153" result="shape"/>
</filter>
<linearGradient id="paint0_linear_8_153" x1="9.50987" y1="1.69381" x2="74.6213" y2="42.8807" gradientUnits="userSpaceOnUse">
<stop stop-color="#9013FE"/>
<stop offset="1" stop-color="#6610F2"/>
</linearGradient>
<linearGradient id="paint1_linear_8_153" x1="24.1885" y1="17.2141" x2="41.3231" y2="40.3062" gradientUnits="userSpaceOnUse">
<stop stop-color="white"/>
<stop offset="1" stop-color="#F1E5FC"/>
</linearGradient>
<clipPath id="clip0_8_153">
<rect width="64" height="64" fill="white"/>
</clipPath>
</defs>
</svg>
