<svg width="64" height="64" viewBox="0 0 64 64" fill="none" xmlns="http://www.w3.org/2000/svg">
<g clip-path="url(#clip0_48_2)">
<path d="M16.0032 64C24.8334 64 32 59.2213 32 53.3333V42.6666H16.0032C7.17298 42.6666 0.00640869 47.4453 0.00640869 53.3333C0.00640869 59.2213 7.17298 64 16.0032 64Z" fill="#0ACF83"/>
<path d="M0.00640869 32C0.00640869 26.112 7.17298 21.3334 16.0032 21.3334H32V42.6667H16.0032C7.17298 42.6667 0.00640869 37.888 0.00640869 32Z" fill="#A259FF"/>
<path d="M0.00640869 10.6667C0.00640869 4.77867 7.17298 0 16.0032 0H32V21.3333H16.0032C7.17298 21.3333 0.00640869 16.5547 0.00640869 10.6667Z" fill="#F24E1E"/>
<path d="M32 0H47.9968C56.827 0 63.9936 4.77867 63.9936 10.6667C63.9936 16.5547 56.827 21.3333 47.9968 21.3333H32V0Z" fill="#FF7262"/>
<path d="M63.9936 32C63.9936 37.888 56.827 42.6667 47.9968 42.6667C39.1666 42.6667 32 37.888 32 32C32 26.112 39.1666 21.3334 47.9968 21.3334C56.827 21.3334 63.9936 26.112 63.9936 32Z" fill="#1ABCFE"/>
</g>
<rect x="0.5" y="0.5" width="63" height="63" stroke="black"/>
<defs>
<clipPath id="clip0_48_2">
<rect width="64" height="64" fill="white"/>
</clipPath>
</defs>
</svg>
