<svg width="64" height="64" viewBox="0 0 64 64" fill="none" xmlns="http://www.w3.org/2000/svg">
<g clip-path="url(#clip0_8_147)">
<path d="M60.024 0H3.976C1.78012 0 0 1.78012 0 3.976V60.024C0 62.2199 1.78012 64 3.976 64H60.024C62.2199 64 64 62.2199 64 60.024V3.976C64 1.78012 62.2199 0 60.024 0Z" fill="url(#paint0_linear_8_147)"/>
<path d="M12.04 9.76665C10.96 9.74798 10.02 10.1546 9.52934 11.348C8.704 13.3586 10.7627 15.32 11.4987 16.3386C12.0147 17.0533 12.6747 17.856 13.044 18.66C13.2867 19.188 13.3293 19.72 13.5373 20.2786C14.048 21.656 14.492 23.1507 15.1533 24.424C15.488 25.068 15.856 25.7493 16.2787 26.324C16.5373 26.6773 16.9813 26.8333 17.052 27.3786C16.6173 27.9866 16.5933 28.9266 16.3493 29.696C15.2507 33.16 15.664 37.4667 17.2627 40.0307C17.7533 40.8173 18.9093 42.5053 20.4973 41.8573C21.8867 41.292 21.5773 39.5386 21.9747 37.9906C22.064 37.64 22.008 37.3826 22.184 37.148V37.2186C22.6053 38.0626 23.028 38.904 23.4507 39.748C24.388 41.256 26.0493 42.8346 27.464 43.8986C28.1947 44.4506 28.7707 45.404 29.7147 45.7253V45.6547H29.644C29.4613 45.3693 29.176 45.2493 28.9413 45.02C28.3907 44.4813 27.7773 43.8107 27.3227 43.1933C26.0413 41.4547 24.9107 39.552 23.8787 37.5706C23.3853 36.624 22.9573 35.5813 22.5453 34.6187C22.3853 34.248 22.388 33.6853 22.0547 33.4933C21.6 34.1987 20.928 34.7693 20.5773 35.6026C20.0147 36.9346 19.9427 38.5573 19.7347 40.2413C19.6107 40.2853 19.6667 40.2573 19.5933 40.312C18.6147 40.076 18.2707 39.068 17.9067 38.2027C16.9853 36.016 16.8147 32.4946 17.624 29.9773C17.8333 29.3266 18.78 27.2746 18.3973 26.672C18.2147 26.072 17.6107 25.7266 17.272 25.268C16.8533 24.7013 16.436 23.9546 16.1467 23.3C15.3933 21.5946 15.0413 19.68 14.248 17.9533C13.8693 17.1293 13.2293 16.2946 12.7027 15.5626C12.12 14.7506 11.4653 14.1533 11.0133 13.172C10.852 12.8226 10.6373 12.2666 10.8747 11.9093C10.9507 11.668 11.056 11.5653 11.2947 11.4866C11.7027 11.172 12.8387 11.592 13.2627 11.768C14.3907 12.236 15.3307 12.6813 16.2867 13.3133C16.7453 13.6173 17.2107 14.2053 17.764 14.368H18.396C19.3853 14.596 20.4947 14.44 21.42 14.72C23.0547 15.2173 24.52 15.9893 25.8507 16.8293C29.904 19.388 33.216 23.0306 35.4827 27.376C35.848 28.076 36.0053 28.7426 36.3267 29.4853C36.9747 30.9813 37.792 32.52 38.436 33.9826C39.08 35.4426 39.7067 36.916 40.616 38.1306C41.0947 38.7693 42.9413 39.1133 43.78 39.464C44.368 39.7133 45.332 39.972 45.8893 40.3066C46.9533 40.9493 47.9853 41.7133 48.984 42.416C49.4827 42.768 51.0173 43.5373 51.0933 44.1733C48.62 44.1067 46.732 44.336 45.1173 45.016C44.6587 45.2093 43.9253 45.216 43.8507 45.792C44.1027 46.056 44.144 46.4507 44.344 46.776C44.7293 47.4 45.3787 48.2347 45.96 48.6733C46.5947 49.152 47.248 49.6653 47.9293 50.08C49.14 50.8173 50.4893 51.2387 51.6547 51.9773C52.3413 52.4133 53.024 52.96 53.6933 53.452C54.024 53.6946 54.2467 54.072 54.6773 54.224V54.156C54.4507 53.868 54.3947 53.4693 54.1867 53.1693L53.2733 52.256C52.38 51.0693 51.244 50.028 50.0387 49.1627C49.0773 48.472 46.9227 47.5413 46.5213 46.4213C46.4973 46.3973 46.4747 46.3747 46.4507 46.3507C47.132 46.2733 47.9333 46.028 48.5627 45.86C49.62 45.576 50.5627 45.648 51.6533 45.3667C52.1453 45.2267 52.6387 45.0866 53.1307 44.9466V44.6653C52.5787 44.0987 52.184 43.3507 51.5827 42.8387C50.008 41.492 48.2893 40.1587 46.52 39.04C45.5387 38.42 44.328 38.02 43.288 37.4947C42.9387 37.3187 42.324 37.2253 42.092 36.9306C41.5453 36.2346 41.2467 35.3533 40.8253 34.5426C39.9427 32.8426 39.0773 30.9866 38.296 29.196C37.7627 27.9773 37.412 26.7733 36.748 25.68C33.5547 20.432 30.1187 17.2626 24.7947 14.1493C23.6613 13.4866 22.2987 13.228 20.8573 12.8866C20.084 12.84 19.3093 12.792 18.536 12.7453C18.064 12.548 17.572 11.9706 17.128 11.6906C16.0253 10.9946 13.8453 9.78665 12.0453 9.75598M19.66 17.384C19.144 17.3733 18.7787 17.4413 18.3933 17.5253V17.596H18.464C18.7093 18.1013 19.144 18.4266 19.448 18.8626C19.6827 19.3546 19.916 19.8453 20.1507 20.3373C20.1733 20.3146 20.1973 20.2933 20.2213 20.2693C20.6573 19.9626 20.8587 19.4706 20.856 18.7213C20.6813 18.5373 20.6547 18.3093 20.504 18.0893C20.3027 17.7973 19.9147 17.6293 19.6613 17.384H19.66Z" fill="#DEF2FE"/>
<path d="M12.04 9.76665C10.96 9.74798 10.02 10.1546 9.52934 11.348C8.704 13.3586 10.7627 15.32 11.4987 16.3386C12.0147 17.0533 12.6747 17.856 13.044 18.66C13.2867 19.188 13.3293 19.72 13.5373 20.2786C14.048 21.656 14.492 23.1507 15.1533 24.424C15.488 25.068 15.856 25.7493 16.2787 26.324C16.5373 26.6773 16.9813 26.8333 17.052 27.3786C16.6173 27.9866 16.5933 28.9266 16.3493 29.696C15.2507 33.16 15.664 37.4667 17.2627 40.0307C17.7533 40.8173 18.9093 42.5053 20.4973 41.8573C21.8867 41.292 21.5773 39.5386 21.9747 37.9906C22.064 37.64 22.008 37.3826 22.184 37.148V37.2186C22.6053 38.0626 23.028 38.904 23.4507 39.748C24.388 41.256 26.0493 42.8346 27.464 43.8986C28.1947 44.4506 28.7707 45.404 29.7147 45.7253V45.6547H29.644C29.4613 45.3693 29.176 45.2493 28.9413 45.02C28.3907 44.4813 27.7773 43.8107 27.3227 43.1933C26.0413 41.4547 24.9107 39.552 23.8787 37.5706C23.3853 36.624 22.9573 35.5813 22.5453 34.6187C22.3853 34.248 22.388 33.6853 22.0547 33.4933C21.6 34.1987 20.928 34.7693 20.5773 35.6026C20.0147 36.9346 19.9427 38.5573 19.7347 40.2413C19.6107 40.2853 19.6667 40.2573 19.5933 40.312C18.6147 40.076 18.2707 39.068 17.9067 38.2027C16.9853 36.016 16.8147 32.4946 17.624 29.9773C17.8333 29.3266 18.78 27.2746 18.3973 26.672C18.2147 26.072 17.6107 25.7266 17.272 25.268C16.8533 24.7013 16.436 23.9546 16.1467 23.3C15.3933 21.5946 15.0413 19.68 14.248 17.9533C13.8693 17.1293 13.2293 16.2946 12.7027 15.5626C12.12 14.7506 11.4653 14.1533 11.0133 13.172C10.852 12.8226 10.6373 12.2666 10.8747 11.9093C10.9507 11.668 11.056 11.5653 11.2947 11.4866C11.7027 11.172 12.8387 11.592 13.2627 11.768C14.3907 12.236 15.3307 12.6813 16.2867 13.3133C16.7453 13.6173 17.2107 14.2053 17.764 14.368H18.396C19.3853 14.596 20.4947 14.44 21.42 14.72C23.0547 15.2173 24.52 15.9893 25.8507 16.8293C29.904 19.388 33.216 23.0306 35.4827 27.376C35.848 28.076 36.0053 28.7426 36.3267 29.4853C36.9747 30.9813 37.792 32.52 38.436 33.9826C39.08 35.4426 39.7067 36.916 40.616 38.1306C41.0947 38.7693 42.9413 39.1133 43.78 39.464C44.368 39.7133 45.332 39.972 45.8893 40.3066C46.9533 40.9493 47.9853 41.7133 48.984 42.416C49.4827 42.768 51.0173 43.5373 51.0933 44.1733C48.62 44.1067 46.732 44.336 45.1173 45.016C44.6587 45.2093 43.9253 45.216 43.8507 45.792C44.1027 46.056 44.144 46.4507 44.344 46.776C44.7293 47.4 45.3787 48.2347 45.96 48.6733C46.5947 49.152 47.248 49.6653 47.9293 50.08C49.14 50.8173 50.4893 51.2387 51.6547 51.9773C52.3413 52.4133 53.024 52.96 53.6933 53.452C54.024 53.6946 54.2467 54.072 54.6773 54.224V54.156C54.4507 53.868 54.3947 53.4693 54.1867 53.1693L53.2733 52.256C52.38 51.0693 51.244 50.028 50.0387 49.1627C49.0773 48.472 46.9227 47.5413 46.5213 46.4213C46.4973 46.3973 46.4747 46.3747 46.4507 46.3507C47.132 46.2733 47.9333 46.028 48.5627 45.86C49.62 45.576 50.5627 45.648 51.6533 45.3667C52.1453 45.2267 52.6387 45.0866 53.1307 44.9466V44.6653C52.5787 44.0987 52.184 43.3507 51.5827 42.8387C50.008 41.492 48.2893 40.1587 46.52 39.04C45.5387 38.42 44.328 38.02 43.288 37.4947C42.9387 37.3187 42.324 37.2253 42.092 36.9306C41.5453 36.2346 41.2467 35.3533 40.8253 34.5426C39.9427 32.8426 39.0773 30.9866 38.296 29.196C37.7627 27.9773 37.412 26.7733 36.748 25.68C33.5547 20.432 30.1187 17.2626 24.7947 14.1493C23.6613 13.4866 22.2987 13.228 20.8573 12.8866C20.084 12.84 19.3093 12.792 18.536 12.7453C18.064 12.548 17.572 11.9706 17.128 11.6906C16.0253 10.9946 13.8453 9.78665 12.0453 9.75598M19.66 17.384C19.144 17.3733 18.7787 17.4413 18.3933 17.5253V17.596H18.464C18.7093 18.1013 19.144 18.4266 19.448 18.8626C19.6827 19.3546 19.916 19.8453 20.1507 20.3373C20.1733 20.3146 20.1973 20.2933 20.2213 20.2693C20.6573 19.9626 20.8587 19.4706 20.856 18.7213C20.6813 18.5373 20.6547 18.3093 20.504 18.0893C20.3027 17.7973 19.9147 17.6293 19.6613 17.384H19.66Z" stroke="#DEF2FE" stroke-width="0.4" stroke-linecap="square" stroke-linejoin="bevel"/>
</g>
<defs>
<linearGradient id="paint0_linear_8_147" x1="32.8133" y1="63.4573" x2="31.4573" y2="-0.270668" gradientUnits="userSpaceOnUse">
<stop stop-color="#197FF1"/>
<stop offset="1" stop-color="#21C6FB"/>
</linearGradient>
<clipPath id="clip0_8_147">
<rect width="64" height="64" fill="white"/>
</clipPath>
</defs>
</svg>
