<svg width="64" height="64" viewBox="0 0 64 64" fill="none" xmlns="http://www.w3.org/2000/svg">
<g clip-path="url(#clip0_8_150)">
<path d="M20.7731 54.5115C17.1336 51.8685 16.071 46.3153 17.5874 42.2921C20.2167 44.8287 23.8598 45.6322 27.6333 46.0858C33.4588 46.7857 39.1799 46.5239 44.5915 44.4087C45.2106 44.1665 45.7827 43.8446 46.4592 43.5184C46.967 44.6887 47.0991 45.8701 46.9217 47.0726C46.4905 50.0011 44.6559 52.2633 41.7379 53.9782C40.5711 54.6641 39.3364 55.2772 38.1314 55.9239C34.4291 57.9118 33.4275 60.2425 34.8186 63.6327C34.8517 63.7158 34.8813 63.7984 34.956 64C33.0658 63.3277 31.685 62.3491 30.633 61.0625C29.5218 59.705 28.9931 58.2029 28.9653 56.5777C28.9514 55.7868 28.9514 54.9888 28.8175 54.2091C28.4906 52.3081 27.3672 51.457 25.2509 51.408C23.079 51.3576 21.3609 52.4243 20.9053 54.1041C20.8706 54.2329 20.8201 54.3603 20.7697 54.5101L20.7731 54.5115Z" fill="#17191E"/>
<path d="M0 41.6219C0 41.6219 10.7775 37.4512 21.5852 37.4512L29.7337 17.4178C30.0388 16.449 30.9295 15.7906 31.9352 15.7906C32.9408 15.7906 33.8315 16.449 34.1366 17.4178L42.2853 37.4512C55.0853 37.4512 63.8703 41.6219 63.8703 41.6219C63.8703 41.6219 45.5639 2.00513 45.5281 1.92565C45.0027 0.754363 44.1157 0 42.9198 0H20.9524C19.7566 0 18.9054 0.754363 18.3442 1.92565C18.3046 2.00364 0 41.6219 0 41.6219Z" fill="#17191E"/>
</g>
<defs>
<clipPath id="clip0_8_150">
<rect width="64" height="64" fill="white"/>
</clipPath>
</defs>
</svg>
