<svg width="64" height="64" viewBox="0 0 64 64" fill="none" xmlns="http://www.w3.org/2000/svg">
<path d="M13.55 0H16.425V2.85H19.075V0H21.95V8.625H19.075V5.75H16.45V8.625H13.55M25.75 2.875H23.2125V0H31.175V2.875H28.625V8.625H25.75M32.4375 0H35.4501L37.3 3.0375L39.1501 0H42.1625V8.625H39.2875V4.35L37.2751 7.45L35.2626 4.35V8.625H32.4375M43.5876 0H46.4626V5.775H50.5375V8.625H43.5876" fill="black"/>
<path d="M13.45 58.875L9.32495 12.575H54.6749L50.5499 58.8499L31.9625 64" fill="#E44D26"/>
<path d="M32 60.0625V16.375H50.5375L47 55.875" fill="#F16529"/>
<path d="M17.75 22.0375H32V27.7125H23.975L24.5 33.525H32V39.1875H19.3M19.55 42.0375H25.25L25.65 46.575L32 48.275V54.2L20.35 50.95" fill="#EBEBEB"/>
<path d="M46.2 22.0375H31.975V27.7125H45.675M45.1625 33.525H31.975V39.2H38.975L38.3125 46.575L31.975 48.275V54.175L43.6 50.95" fill="white"/>
</svg>
