<svg width="64" height="64" viewBox="0 0 64 64" fill="none" xmlns="http://www.w3.org/2000/svg">
<path d="M55 12.5775L50.9004 58.8524L32.4725 64L14.0953 58.8596L10 12.5775H55Z" fill="#264DE4"/>
<path d="M47.3907 55.9057L50.8941 16.3617H32.5V60.0653L47.3907 55.9057Z" fill="#2965F1"/>
<path d="M19.3883 33.5271L19.8932 39.2034H32.5V33.5271H19.3883Z" fill="#EBEBEB"/>
<path d="M32.5 22.0381H32.4805H18.3738L18.8859 27.7145H32.5V22.0381Z" fill="#EBEBEB"/>
<path d="M32.4999 54.1749V48.2691L32.4753 48.2757L26.2012 46.5687L25.8001 42.0416H22.7514H20.1449L20.9342 50.9543L32.474 54.1821L32.4999 54.1749Z" fill="#EBEBEB"/>
<path d="M20.5904 0H27.4136V2.875H23.4437V5.75H27.4136V8.625H20.5904V0Z" fill="black"/>
<path d="M28.7783 0H35.6014V2.5H31.6316V3H35.6014V8.75H28.7783V6.125H32.7481V5.625H28.7783V0Z" fill="black"/>
<path d="M36.9661 0H43.7892V2.5H39.8194V3H43.7892V8.75H36.9661V6.125H40.9359V5.625H36.9661V0Z" fill="black"/>
<path d="M39.4175 39.2033L38.7636 46.5651L32.4805 48.2738V54.1793L44.0295 50.9542L44.1142 49.9952L45.4381 35.0513L45.5755 33.5271L46.5925 22.0381H32.4805V27.7145H40.4187L39.9061 33.5271H32.4805V39.2033H39.4175Z" fill="white"/>
</svg>
