<svg width="64" height="64" viewBox="0 0 64 64" fill="none" xmlns="http://www.w3.org/2000/svg">
<g clip-path="url(#clip0_8_94)">
<mask id="mask0_8_94" style="mask-type:luminance" maskUnits="userSpaceOnUse" x="0" y="1" width="64" height="62">
<path d="M0.899902 32C0.899902 48.7515 14.8242 62.3315 32 62.3315C49.1757 62.3315 63.1001 48.7515 63.1001 32C63.1001 15.2487 49.1757 1.66838 32 1.66838C14.8242 1.66838 0.899902 15.2487 0.899902 32Z" fill="white"/>
</mask>
<g mask="url(#mask0_8_94)">
<path d="M0.899902 32C0.899902 48.7515 14.8242 62.3315 32 62.3315C49.1757 62.3315 63.1001 48.7515 63.1001 32C63.1001 15.2487 49.1757 1.66838 32 1.66838C14.8242 1.66838 0.899902 15.2487 0.899902 32Z" fill="url(#paint0_radial_8_94)"/>
</g>
<mask id="mask1_8_94" style="mask-type:luminance" maskUnits="userSpaceOnUse" x="-1" y="-2" width="66" height="68">
<path d="M-0.395935 -1.78542H64.3958V65.7854H-0.395935V-1.78542Z" fill="white"/>
</mask>
<g mask="url(#mask1_8_94)">
<path d="M32 60.0796C48.5049 60.0796 61.8852 47.5079 61.8852 31.9999C61.8852 16.4922 48.5049 3.92031 32 3.92031C15.495 3.92031 2.11475 16.4922 2.11475 31.9999C2.11475 47.5079 15.495 60.0796 32 60.0796Z" fill="#777BB3"/>
</g>
<mask id="mask2_8_94" style="mask-type:luminance" maskUnits="userSpaceOnUse" x="-1" y="-2" width="66" height="68">
<path d="M-0.395935 -1.78542H64.3958V65.7854H-0.395935V-1.78542Z" fill="white"/>
</mask>
<g mask="url(#mask2_8_94)">
<path d="M17.7969 35.4813C19.154 35.4813 20.1672 35.0173 20.8083 34.1026C21.4424 33.1973 21.8805 31.6287 22.1101 29.4408C22.3241 27.3958 22.2426 25.9678 21.8678 25.1972C21.4845 24.4101 20.6559 24.011 19.4051 24.011H17.2363L16.0339 35.4813H17.7969ZM10.7032 49.6107C10.6025 49.6107 10.5069 49.5273 10.4429 49.383C10.3788 49.2389 10.3528 49.0491 10.3721 48.8658L13.5585 18.4691C13.5894 18.1753 13.7283 17.963 13.8898 17.963H20.7575C22.9159 17.963 24.5224 19.0495 25.5322 21.1928C26.5474 23.3474 26.8609 26.3591 26.4639 30.1441C26.3024 31.6861 26.0246 33.1182 25.6382 34.4004C25.2513 35.684 24.7401 36.8717 24.1184 37.9312C23.3742 39.2225 22.5319 40.1589 21.6171 40.7099C20.7169 41.2536 19.5608 41.5293 18.1809 41.5293H15.4001L14.6059 49.1044C14.5751 49.3984 14.4363 49.6107 14.2747 49.6107H10.7032Z" fill="black"/>
<path d="M17.5145 24.6366H19.4051C20.9148 24.6366 21.4392 25.2508 21.6174 25.6168C21.913 26.2245 21.9688 27.5058 21.7788 29.3221C21.5653 31.3555 21.1696 32.7972 20.6024 33.6068C20.0218 34.4356 19.0778 34.8556 17.7969 34.8556H16.4433L17.5145 24.6366ZM20.7575 17.3373H13.8897C13.5667 17.3373 13.2889 17.7619 13.2273 18.3498L10.0408 48.7464C10.0023 49.1133 10.0543 49.4926 10.1824 49.7811C10.3106 50.0695 10.5016 50.2363 10.7032 50.2363H14.2746C14.5978 50.2363 14.8755 49.8117 14.9372 49.2238L15.6782 42.1549H18.1809C19.5962 42.1549 20.7877 41.8688 21.7219 41.3047C22.6826 40.7259 23.5665 39.7447 24.3489 38.3883C24.9959 37.2846 25.5288 36.0458 25.9327 34.7059C26.3366 33.3655 26.6268 31.8708 26.7952 30.2633C27.2131 26.2791 26.8736 23.0887 25.7863 20.7813C24.7096 18.496 23.0176 17.3373 20.7575 17.3373ZM15.6245 36.1069H17.7969C19.2368 36.1069 20.3094 35.6041 21.0141 34.5983C21.719 33.5922 22.1943 31.9132 22.4413 29.5603C22.6777 27.3012 22.57 25.7071 22.1184 24.7784C21.6662 23.8497 20.7619 23.3853 19.4051 23.3853H16.9581L15.6245 36.1069ZM20.7575 18.5886C22.8236 18.5886 24.3308 19.5938 25.2781 21.6044C26.2254 23.6151 26.5106 26.4216 26.1327 30.0247C25.9771 31.509 25.714 32.866 25.3436 34.0955C24.9727 35.3257 24.4885 36.4506 23.89 37.4707C23.1769 38.708 22.3846 39.5898 21.5129 40.1149C20.6411 40.6415 19.5308 40.9036 18.1809 40.9036H15.1218L14.2746 48.985H10.7032L13.8897 18.5886H20.7575Z" fill="white"/>
<path d="M34.6527 41.5294C34.5519 41.5294 34.4564 41.446 34.3924 41.3017C34.3282 41.1576 34.3022 40.968 34.3214 40.7845L35.731 27.3352C35.8651 26.0561 35.832 25.1381 35.638 24.7502C35.5192 24.513 35.1624 24.1153 34.1074 24.1153H31.5537L29.7815 41.0231C29.7507 41.3171 29.6118 41.5294 29.4502 41.5294H25.9069C25.8061 41.5294 25.7106 41.446 25.6465 41.3017C25.5824 41.1576 25.5564 40.9678 25.5757 40.7845L28.7622 10.3878C28.793 10.094 28.9319 9.88166 29.0934 9.88166H32.6367C32.7375 9.88166 32.833 9.96508 32.8971 10.1092C32.9613 10.2535 32.9872 10.4431 32.968 10.6266L32.1991 17.963H34.9462C37.039 17.963 38.4581 18.6471 39.2846 20.0544C40.1272 21.4901 40.39 23.7856 40.0661 26.878L38.5835 41.0231C38.5527 41.3171 38.4139 41.5294 38.2522 41.5294H34.6527Z" fill="black"/>
<path d="M32.6367 9.25584H29.0934C28.7703 9.25584 28.4925 9.68045 28.4309 10.2684L25.2444 40.665C25.2059 41.0319 25.2579 41.4112 25.3861 41.6996C25.5144 41.9881 25.7054 42.1549 25.9069 42.1549H29.4502C29.7733 42.1549 30.0511 41.7303 30.1128 41.1424L31.8319 24.7408H34.1074C35.1606 24.7408 35.3816 25.1579 35.3905 25.1759C35.4544 25.3033 35.5384 25.8935 35.3997 27.2157L33.9902 40.665C33.9517 41.0319 34.0037 41.4112 34.1319 41.6996C34.2601 41.9881 34.4511 42.1549 34.6527 42.1549H38.2523C38.5753 42.1549 38.8532 41.7303 38.9148 41.1424L40.3972 26.9974C40.7452 23.677 40.4475 21.1863 39.513 19.5938C38.6212 18.0753 37.1274 17.3372 34.9462 17.3372H32.6083L33.2993 10.7459C33.3376 10.3791 33.2858 9.99954 33.1576 9.71132C33.0293 9.42289 32.8383 9.25584 32.6367 9.25584ZM32.6367 10.5072L31.7896 18.5885H34.9462C36.9324 18.5885 38.3023 19.2313 39.0563 20.5151C39.8103 21.7998 40.0362 23.8814 39.7348 26.7588L38.2523 40.9036H34.6527L36.0623 27.4545C36.2227 25.9246 36.1637 24.881 35.8852 24.3246C35.6066 23.7681 35.0139 23.4895 34.1074 23.4895H31.2754L29.4502 40.9036H25.9069L29.0934 10.5072H32.6367Z" fill="white"/>
<path d="M45.6726 35.4813C47.0298 35.4813 48.0429 35.0173 48.684 34.1026C49.3182 33.1975 49.7562 31.629 49.9859 29.4408C50.1999 27.3958 50.1184 25.9678 49.7435 25.1972C49.3602 24.4101 48.5317 24.011 47.2808 24.011H45.112L43.9096 35.4813H45.6726ZM38.579 49.6107C38.4784 49.6107 38.3828 49.5273 38.3187 49.383C38.2546 49.2389 38.2285 49.0491 38.2478 48.8658L41.4343 18.4691C41.4652 18.1753 41.604 17.963 41.7656 17.963H48.6332C50.7917 17.963 52.3981 19.0495 53.408 21.1928C54.4232 23.3471 54.7366 26.3588 54.3398 30.1441C54.178 31.6861 53.9003 33.1182 53.5139 34.4004C53.127 35.684 52.6158 36.8717 51.9941 37.9312C51.2499 39.2225 50.4076 40.1589 49.4929 40.7099C48.5926 41.2536 47.4365 41.5293 46.0566 41.5293H43.2757L42.4818 49.1044C42.4509 49.3984 42.3121 49.6107 42.1505 49.6107H38.579Z" fill="black"/>
<path d="M45.3901 24.6366H47.2808C48.7905 24.6366 49.3149 25.2508 49.4931 25.6168C49.7888 26.2245 49.8446 27.5058 49.6545 29.3219C49.441 31.3555 49.0451 32.7972 48.4781 33.6068C47.8974 34.4356 46.9535 34.8556 45.6726 34.8556H44.3191L45.3901 24.6366ZM48.6332 17.3373H41.7655C41.4425 17.3373 41.1647 17.7619 41.1031 18.3498L37.9166 48.7464C37.8781 49.1133 37.9301 49.4926 38.0582 49.7811C38.1864 50.0695 38.3774 50.2363 38.579 50.2363H42.1504C42.4735 50.2363 42.7513 49.8117 42.813 49.2238L43.5539 42.1549H46.0566C47.4719 42.1549 48.6634 41.8688 49.5976 41.3047C50.5583 40.7259 51.4424 39.7445 52.2248 38.3879C52.8718 37.2844 53.4045 36.0458 53.8083 34.7059C54.2123 33.3655 54.5025 31.8708 54.6709 30.2633C55.0888 26.2789 54.7493 23.0885 53.662 20.7811C52.5853 18.496 50.8934 17.3373 48.6332 17.3373ZM43.5003 36.1069H45.6726C47.1125 36.1069 48.1851 35.6041 48.8898 34.5983C49.5947 33.5922 50.07 31.9132 50.317 29.5603C50.5535 27.3012 50.4458 25.7071 49.9941 24.7784C49.5419 23.8497 48.6376 23.3853 47.2808 23.3853H44.8338L43.5003 36.1069ZM48.6332 18.5886C50.6992 18.5886 52.2064 19.5938 53.1538 21.6044C54.1011 23.6151 54.3863 26.4216 54.0083 30.0247C53.8528 31.509 53.5897 32.866 53.2193 34.0955C52.8484 35.3257 52.3641 36.4506 51.7657 37.4707C51.0526 38.708 50.2603 39.5898 49.3886 40.1149C48.5168 40.6415 47.4064 40.9036 46.0566 40.9036H42.9975L42.1504 48.985H38.579L41.7655 18.5886H48.6332Z" fill="white"/>
</g>
</g>
<defs>
<radialGradient id="paint0_radial_8_94" cx="0" cy="0" r="1" gradientUnits="userSpaceOnUse" gradientTransform="translate(19.5725 12.332) scale(40.8388 75.7164)">
<stop stop-color="#AEB2D5"/>
<stop offset="0.3" stop-color="#AEB2D5"/>
<stop offset="0.75" stop-color="#484C89"/>
<stop offset="1" stop-color="#484C89"/>
</radialGradient>
<clipPath id="clip0_8_94">
<rect width="64" height="64" fill="white"/>
</clipPath>
</defs>
</svg>
