<svg width="64" height="64" viewBox="0 0 64 64" fill="none" xmlns="http://www.w3.org/2000/svg">
<path d="M18.7722 24.6504C18.7722 23.775 18.6406 22.908 18.3849 22.0992C18.1292 21.2904 17.7544 20.5554 17.2819 19.9364C16.8094 19.3173 16.2485 18.8263 15.6312 18.4912C15.0139 18.1562 14.3522 17.9838 13.684 17.9838C13.0158 17.9838 12.3542 18.1562 11.7369 18.4912C11.1195 18.8263 10.5586 19.3173 10.0861 19.9364C9.61364 20.5554 9.23885 21.2904 8.98315 22.0992C8.72744 22.908 8.59583 23.775 8.59583 24.6504C8.56921 25.6912 8.69183 26.7259 8.95386 27.6714C9.21589 28.6169 9.61003 29.447 10.1047 30.0951C10.5994 30.7432 11.1808 31.1914 11.8024 31.4036C12.4239 31.6158 13.0684 31.5862 13.684 31.3171C14.2213 31.3102 14.7533 31.4776 15.2493 31.8096C15.7453 32.1415 16.1954 32.6315 16.5739 33.2513C16.9523 33.871 17.2514 34.6083 17.4541 35.4205C17.6567 36.2327 17.7589 37.1039 17.7546 37.9838C17.6196 39.7519 16.9541 41.3773 15.9045 42.5025C14.8549 43.6278 13.507 44.1606 12.1576 43.9838C10.8081 43.807 9.5675 42.935 8.7087 41.5597C7.8499 40.1845 7.44324 38.4185 7.57819 36.6504" stroke="#DF6C20" stroke-width="5"/>
<path d="M34.0368 44.2461C31.5115 44.7902 28.9224 44.0675 26.7856 42.2223C24.6487 40.377 23.1209 37.5445 22.5067 34.2894C21.8925 31.0342 22.237 27.5953 23.4714 24.658C24.7059 21.7207 26.7397 19.5007 29.1676 18.4403C31.5956 17.38 34.2393 17.5571 36.5719 18.9365C38.9046 20.3159 40.755 22.7962 41.7543 25.8832C42.7536 28.9702 42.8284 32.4372 41.964 35.5932C41.0995 38.7493 39.3592 41.3628 37.0897 42.9128M34.0368 37.5794L40.1427 48.2461" stroke="#DF6C20" stroke-width="4"/>
<path d="M47.2661 16.6504V37.9837C47.2661 39.7518 47.8022 41.4475 48.7564 42.6978C49.7107 43.948 51.0049 44.6504 52.3543 44.6504H56.4249" stroke="#DF6C20" stroke-width="5"/>
</svg>
