<svg width="64" height="64" viewBox="0 0 64 64" fill="none" xmlns="http://www.w3.org/2000/svg">
<mask id="mask0_8_134" style="mask-type:luminance" maskUnits="userSpaceOnUse" x="0" y="0" width="64" height="63">
<path d="M0 0H64V62.8364H0V0Z" fill="white"/>
</mask>
<g mask="url(#mask0_8_134)">
<path fill-rule="evenodd" clip-rule="evenodd" d="M32 0C23.4667 0 18.1333 6.98182 16 20.9455C19.2 13.9636 22.9333 11.3455 27.2 13.0909C29.6344 14.0858 31.3742 16.9775 33.3001 20.1755C36.4373 25.3867 40.0687 31.4182 48 31.4182C56.5333 31.4182 61.8667 24.4364 64 10.4727C60.8 17.4545 57.0667 20.0727 52.8 18.3273C50.3656 17.3324 48.6258 14.4407 46.6999 11.2427C43.5627 6.03151 39.9313 0 32 0ZM16 31.4182C7.46667 31.4182 2.13333 38.4 0 52.3636C3.2 45.3818 6.93333 42.7636 11.2 44.5091C13.6344 45.5059 15.3742 48.3956 17.3001 51.5937C20.4373 56.8048 24.0687 62.8364 32 62.8364C40.5333 62.8364 45.8667 55.8545 48 41.8909C44.8 48.8727 41.0667 51.4909 36.8 49.7455C34.3656 48.7505 32.6258 45.8589 30.6999 42.6608C27.5627 37.4497 23.9313 31.4182 16 31.4182Z" fill="#38BDF8"/>
</g>
</svg>
