<svg width="64" height="64" viewBox="0 0 64 64" fill="none" xmlns="http://www.w3.org/2000/svg">
<g clip-path="url(#clip0_8_140)">
<path d="M4.54871 31.9992C4.54871 42.8651 10.8636 52.2554 20.0206 56.7053L6.92546 20.8271C5.40225 24.2412 4.54871 28.0194 4.54871 31.9992Z" fill="#464342"/>
<path d="M50.5335 30.6139C50.5335 27.2212 49.3148 24.8717 48.2696 23.0429C46.878 20.7817 45.5737 18.8667 45.5737 16.6055C45.5737 14.082 47.4876 11.733 50.1835 11.733C50.3052 11.733 50.4207 11.7481 50.5392 11.7549C45.6551 7.28048 39.1481 4.54858 32.0011 4.54858C22.4105 4.54858 13.9727 9.46913 9.06409 16.922C9.70816 16.9414 10.3151 16.9549 10.8307 16.9549C13.7022 16.9549 18.1469 16.6065 18.1469 16.6065C19.6268 16.5193 19.8013 18.6928 18.323 18.8678C18.323 18.8678 16.8358 19.0428 15.181 19.1295L25.178 48.8643L31.1857 30.8469L26.9086 19.1284C25.4303 19.0417 24.0298 18.8667 24.0298 18.8667C22.5505 18.78 22.7239 16.5183 24.2032 16.6055C24.2032 16.6055 28.7368 16.9539 31.4343 16.9539C34.3052 16.9539 38.7505 16.6055 38.7505 16.6055C40.2314 16.5183 40.4054 18.6918 38.9266 18.8667C38.9266 18.8667 37.4363 19.0417 35.7846 19.1284L45.7053 48.6381L48.4435 39.4881C49.6303 35.6911 50.5335 32.964 50.5335 30.6139Z" fill="#464342"/>
<path d="M32.4827 34.4005L24.2461 58.3341C26.7054 59.057 29.3062 59.4525 32.0011 59.4525C35.198 59.4525 38.2637 58.8998 41.1174 57.8964C41.0437 57.7788 40.9769 57.654 40.922 57.5182L32.4827 34.4005Z" fill="#464342"/>
<path d="M56.0893 18.8286C56.2074 19.703 56.2743 20.6417 56.2743 21.6514C56.2743 24.4371 55.754 27.5686 54.1869 31.4841L45.8014 55.728C53.9628 50.9689 59.4523 42.127 59.4523 31.9997C59.4528 27.227 58.2336 22.7389 56.0893 18.8286Z" fill="#464342"/>
<path d="M32.001 0C14.3561 0 0 14.3547 0 31.9992C0 49.6458 14.3561 64 32.001 64C49.6454 64 64.0037 49.6458 64.0037 31.9992C64.0031 14.3547 49.6454 0 32.001 0ZM32.001 62.5332C15.1653 62.5332 1.46732 48.8356 1.46732 31.9992C1.46732 15.1638 15.1647 1.46728 32.001 1.46728C48.8363 1.46728 62.5332 15.1638 62.5332 31.9992C62.5332 48.8356 48.8363 62.5332 32.001 62.5332Z" fill="#464342"/>
</g>
<defs>
<clipPath id="clip0_8_140">
<rect width="64" height="64" fill="white"/>
</clipPath>
</defs>
</svg>
