<svg width="750" height="500" viewBox="0 0 750 500" fill="none" xmlns="http://www.w3.org/2000/svg">
<g clip-path="url(#clip0_11_2)">
<mask id="mask0_11_2" style="mask-type:luminance" maskUnits="userSpaceOnUse" x="0" y="0" width="750" height="500">
<path d="M0 0V500H750V0H0Z" fill="white"/>
</mask>
<g mask="url(#mask0_11_2)">
<path d="M0 0V500H750V0H0Z" fill="#012169"/>
<path d="M0 0L750 500ZM750 0L0 500Z" fill="black"/>
<path d="M0 0L750 500M750 0L0 500" stroke="white" stroke-width="120"/>
<mask id="mask1_11_2" style="mask-type:luminance" maskUnits="userSpaceOnUse" x="0" y="0" width="750" height="500">
<path d="M375 250H750V500L375 250ZM375 250V500H0L375 250ZM375 250H0V0L375 250ZM375 250V0H750L375 250Z" fill="white"/>
</mask>
<g mask="url(#mask1_11_2)">
<path d="M0 0L750 500ZM750 0L0 500Z" fill="black"/>
<path d="M0 0L750 500M750 0L0 500" stroke="#C8102E" stroke-width="80"/>
</g>
<path d="M375 0V500ZM0 250H750Z" fill="black"/>
<path d="M375 0V500M0 250H750" stroke="white" stroke-width="200"/>
<path d="M375 0V500ZM0 250H750Z" fill="black"/>
<path d="M375 0V500M0 250H750" stroke="#C8102E" stroke-width="120"/>
</g>
</g>
<defs>
<clipPath id="clip0_11_2">
<rect width="750" height="500" fill="white"/>
</clipPath>
</defs>
</svg>
